<mxfile host="app.diagrams.net" modified="2023-10-24T20:13:36.080Z" agent="Mozilla/5.0 (Macintosh; Intel Mac OS X 10_15_7) AppleWebKit/537.36 (KHTML, like Gecko) Chrome/118.0.0.0 Safari/537.36" etag="hAtsdwaV2FwCbe9ePc0h" version="22.0.7" type="github">
  <diagram name="Page-1" id="2YBvvXClWsGukQMizWep">
    <mxGraphModel dx="951" dy="1171" grid="1" gridSize="10" guides="1" tooltips="1" connect="1" arrows="1" fold="1" page="1" pageScale="1" pageWidth="850" pageHeight="1100" math="0" shadow="0">
      <root>
        <mxCell id="0" />
        <mxCell id="1" parent="0" />
        <mxCell id="SCWPvQQhRMh5vSyVo1Tb-8" value="&lt;h1&gt;Continuous Improvement ML Project Flowchart&lt;/h1&gt;" style="text;html=1;strokeColor=none;fillColor=none;align=center;verticalAlign=middle;whiteSpace=wrap;rounded=0;" parent="1" vertex="1">
          <mxGeometry x="190.29" y="100" width="410" height="60" as="geometry" />
        </mxCell>
        <mxCell id="OfxfBpNntlx1tqYd5shY-20" style="edgeStyle=orthogonalEdgeStyle;rounded=0;orthogonalLoop=1;jettySize=auto;html=1;" edge="1" parent="1" source="SCWPvQQhRMh5vSyVo1Tb-9" target="OfxfBpNntlx1tqYd5shY-16">
          <mxGeometry relative="1" as="geometry" />
        </mxCell>
        <mxCell id="OfxfBpNntlx1tqYd5shY-34" style="edgeStyle=orthogonalEdgeStyle;rounded=0;orthogonalLoop=1;jettySize=auto;html=1;exitX=0.5;exitY=1;exitDx=0;exitDy=0;exitPerimeter=0;" edge="1" parent="1" source="SCWPvQQhRMh5vSyVo1Tb-9" target="OfxfBpNntlx1tqYd5shY-30">
          <mxGeometry relative="1" as="geometry" />
        </mxCell>
        <mxCell id="SCWPvQQhRMh5vSyVo1Tb-9" value="Profile" style="html=1;whiteSpace=wrap;strokeColor=none;fillColor=#0079D6;labelPosition=center;verticalLabelPosition=middle;verticalAlign=top;align=center;fontSize=12;outlineConnect=0;spacingTop=-6;fontColor=#FFFFFF;sketch=0;shape=mxgraph.sitemap.profile;" parent="1" vertex="1">
          <mxGeometry x="310" y="440" width="180" height="105" as="geometry" />
        </mxCell>
        <mxCell id="OfxfBpNntlx1tqYd5shY-2" style="edgeStyle=orthogonalEdgeStyle;rounded=0;orthogonalLoop=1;jettySize=auto;html=1;entryX=0.5;entryY=0;entryDx=0;entryDy=0;entryPerimeter=0;" edge="1" parent="1" source="OfxfBpNntlx1tqYd5shY-1" target="SCWPvQQhRMh5vSyVo1Tb-9">
          <mxGeometry relative="1" as="geometry" />
        </mxCell>
        <mxCell id="OfxfBpNntlx1tqYd5shY-3" value="" style="group" vertex="1" connectable="0" parent="1">
          <mxGeometry x="200" y="227" width="400" height="130" as="geometry" />
        </mxCell>
        <mxCell id="SCWPvQQhRMh5vSyVo1Tb-1" value="Organisation&lt;br&gt;Data" style="image;aspect=fixed;perimeter=ellipsePerimeter;html=1;align=center;shadow=0;dashed=0;spacingTop=3;image=img/lib/active_directory/databases.svg;" parent="OfxfBpNntlx1tqYd5shY-3" vertex="1">
          <mxGeometry x="45.16" y="28.25" width="50" height="49" as="geometry" />
        </mxCell>
        <mxCell id="SCWPvQQhRMh5vSyVo1Tb-3" value="Machine&lt;br&gt;Learning" style="outlineConnect=0;dashed=0;verticalLabelPosition=bottom;verticalAlign=top;align=center;html=1;shape=mxgraph.aws3.machine_learning;fillColor=#2E73B8;gradientColor=none;" parent="OfxfBpNntlx1tqYd5shY-3" vertex="1">
          <mxGeometry x="175.16000000000003" y="22" width="50.59" height="61.5" as="geometry" />
        </mxCell>
        <mxCell id="SCWPvQQhRMh5vSyVo1Tb-2" style="edgeStyle=orthogonalEdgeStyle;rounded=0;orthogonalLoop=1;jettySize=auto;html=1;entryX=0;entryY=0.5;entryDx=0;entryDy=0;entryPerimeter=0;" parent="OfxfBpNntlx1tqYd5shY-3" source="SCWPvQQhRMh5vSyVo1Tb-1" target="SCWPvQQhRMh5vSyVo1Tb-3" edge="1">
          <mxGeometry relative="1" as="geometry">
            <mxPoint x="175.16000000000003" y="53.25" as="targetPoint" />
          </mxGeometry>
        </mxCell>
        <mxCell id="SCWPvQQhRMh5vSyVo1Tb-4" value="Insights" style="shape=image;html=1;verticalAlign=top;verticalLabelPosition=bottom;labelBackgroundColor=#ffffff;imageAspect=0;aspect=fixed;image=https://cdn1.iconfinder.com/data/icons/software-engineering-and-video-gaming/512/475_Idea_insight_key_lamp_lightbulb_Advertising_Promo_Creative_Process-128.png" parent="OfxfBpNntlx1tqYd5shY-3" vertex="1">
          <mxGeometry x="285.16" y="20" width="66.25" height="66.25" as="geometry" />
        </mxCell>
        <mxCell id="SCWPvQQhRMh5vSyVo1Tb-5" style="edgeStyle=orthogonalEdgeStyle;rounded=0;orthogonalLoop=1;jettySize=auto;html=1;entryX=0;entryY=0.5;entryDx=0;entryDy=0;" parent="OfxfBpNntlx1tqYd5shY-3" source="SCWPvQQhRMh5vSyVo1Tb-3" target="SCWPvQQhRMh5vSyVo1Tb-4" edge="1">
          <mxGeometry relative="1" as="geometry" />
        </mxCell>
        <mxCell id="OfxfBpNntlx1tqYd5shY-1" value="" style="rounded=0;whiteSpace=wrap;html=1;fillColor=none;" vertex="1" parent="OfxfBpNntlx1tqYd5shY-3">
          <mxGeometry width="400" height="130" as="geometry" />
        </mxCell>
        <mxCell id="OfxfBpNntlx1tqYd5shY-7" style="edgeStyle=orthogonalEdgeStyle;rounded=0;orthogonalLoop=1;jettySize=auto;html=1;entryX=0;entryY=0.5;entryDx=0;entryDy=0;" edge="1" parent="1" source="OfxfBpNntlx1tqYd5shY-4" target="OfxfBpNntlx1tqYd5shY-1">
          <mxGeometry relative="1" as="geometry" />
        </mxCell>
        <mxCell id="OfxfBpNntlx1tqYd5shY-4" value="Transactional Data" style="text;html=1;strokeColor=none;fillColor=none;align=center;verticalAlign=middle;whiteSpace=wrap;rounded=0;" vertex="1" parent="1">
          <mxGeometry x="40" y="210" width="60" height="30" as="geometry" />
        </mxCell>
        <mxCell id="OfxfBpNntlx1tqYd5shY-8" style="edgeStyle=orthogonalEdgeStyle;rounded=0;orthogonalLoop=1;jettySize=auto;html=1;entryX=0;entryY=0.5;entryDx=0;entryDy=0;" edge="1" parent="1" source="OfxfBpNntlx1tqYd5shY-5" target="OfxfBpNntlx1tqYd5shY-1">
          <mxGeometry relative="1" as="geometry" />
        </mxCell>
        <mxCell id="OfxfBpNntlx1tqYd5shY-5" value="Reference Data" style="text;html=1;strokeColor=none;fillColor=none;align=center;verticalAlign=middle;whiteSpace=wrap;rounded=0;" vertex="1" parent="1">
          <mxGeometry x="40" y="277" width="60" height="30" as="geometry" />
        </mxCell>
        <mxCell id="OfxfBpNntlx1tqYd5shY-9" style="edgeStyle=orthogonalEdgeStyle;rounded=0;orthogonalLoop=1;jettySize=auto;html=1;entryX=0;entryY=0.5;entryDx=0;entryDy=0;" edge="1" parent="1" source="OfxfBpNntlx1tqYd5shY-6" target="OfxfBpNntlx1tqYd5shY-1">
          <mxGeometry relative="1" as="geometry" />
        </mxCell>
        <mxCell id="OfxfBpNntlx1tqYd5shY-6" value="Project&lt;br&gt;Data" style="text;html=1;strokeColor=none;fillColor=none;align=center;verticalAlign=middle;whiteSpace=wrap;rounded=0;" vertex="1" parent="1">
          <mxGeometry x="40" y="340" width="60" height="30" as="geometry" />
        </mxCell>
        <mxCell id="OfxfBpNntlx1tqYd5shY-12" value="" style="verticalLabelPosition=bottom;aspect=fixed;html=1;shape=mxgraph.salesforce.data2;" vertex="1" parent="1">
          <mxGeometry x="7" y="214" width="20" height="20" as="geometry" />
        </mxCell>
        <mxCell id="OfxfBpNntlx1tqYd5shY-13" value="" style="verticalLabelPosition=bottom;aspect=fixed;html=1;shape=mxgraph.salesforce.data2;" vertex="1" parent="1">
          <mxGeometry x="7" y="279" width="20" height="20" as="geometry" />
        </mxCell>
        <mxCell id="OfxfBpNntlx1tqYd5shY-14" value="" style="verticalLabelPosition=bottom;aspect=fixed;html=1;shape=mxgraph.salesforce.data2;" vertex="1" parent="1">
          <mxGeometry x="7" y="345" width="20" height="20" as="geometry" />
        </mxCell>
        <mxCell id="OfxfBpNntlx1tqYd5shY-15" value="" style="shape=image;html=1;verticalLabelPosition=bottom;verticalAlign=top;imageAspect=1;aspect=fixed;image=img/clipart/Gear_128x128.png" vertex="1" parent="1">
          <mxGeometry x="190.29" y="214" width="22.17" height="26" as="geometry" />
        </mxCell>
        <mxCell id="OfxfBpNntlx1tqYd5shY-16" value="Soft skills" style="swimlane;fontStyle=0;childLayout=stackLayout;horizontal=1;startSize=26;fillColor=none;horizontalStack=0;resizeParent=1;resizeParentMax=0;resizeLast=0;collapsible=1;marginBottom=0;html=1;" vertex="1" parent="1">
          <mxGeometry x="208" y="614" width="140" height="104" as="geometry" />
        </mxCell>
        <mxCell id="OfxfBpNntlx1tqYd5shY-17" value="Presenting" style="text;strokeColor=none;fillColor=none;align=left;verticalAlign=top;spacingLeft=4;spacingRight=4;overflow=hidden;rotatable=0;points=[[0,0.5],[1,0.5]];portConstraint=eastwest;whiteSpace=wrap;html=1;" vertex="1" parent="OfxfBpNntlx1tqYd5shY-16">
          <mxGeometry y="26" width="140" height="26" as="geometry" />
        </mxCell>
        <mxCell id="OfxfBpNntlx1tqYd5shY-19" value="Patience" style="text;strokeColor=none;fillColor=none;align=left;verticalAlign=top;spacingLeft=4;spacingRight=4;overflow=hidden;rotatable=0;points=[[0,0.5],[1,0.5]];portConstraint=eastwest;whiteSpace=wrap;html=1;" vertex="1" parent="OfxfBpNntlx1tqYd5shY-16">
          <mxGeometry y="52" width="140" height="26" as="geometry" />
        </mxCell>
        <mxCell id="OfxfBpNntlx1tqYd5shY-18" value="Collaboration" style="text;strokeColor=none;fillColor=none;align=left;verticalAlign=top;spacingLeft=4;spacingRight=4;overflow=hidden;rotatable=0;points=[[0,0.5],[1,0.5]];portConstraint=eastwest;whiteSpace=wrap;html=1;" vertex="1" parent="OfxfBpNntlx1tqYd5shY-16">
          <mxGeometry y="78" width="140" height="26" as="geometry" />
        </mxCell>
        <mxCell id="OfxfBpNntlx1tqYd5shY-30" value="&lt;div&gt;Hard skills&lt;/div&gt;" style="swimlane;fontStyle=0;childLayout=stackLayout;horizontal=1;startSize=26;fillColor=none;horizontalStack=0;resizeParent=1;resizeParentMax=0;resizeLast=0;collapsible=1;marginBottom=0;html=1;" vertex="1" parent="1">
          <mxGeometry x="451" y="614" width="140" height="104" as="geometry" />
        </mxCell>
        <mxCell id="OfxfBpNntlx1tqYd5shY-31" value="Engineering" style="text;strokeColor=none;fillColor=none;align=left;verticalAlign=top;spacingLeft=4;spacingRight=4;overflow=hidden;rotatable=0;points=[[0,0.5],[1,0.5]];portConstraint=eastwest;whiteSpace=wrap;html=1;" vertex="1" parent="OfxfBpNntlx1tqYd5shY-30">
          <mxGeometry y="26" width="140" height="26" as="geometry" />
        </mxCell>
        <mxCell id="OfxfBpNntlx1tqYd5shY-32" value="Coding" style="text;strokeColor=none;fillColor=none;align=left;verticalAlign=top;spacingLeft=4;spacingRight=4;overflow=hidden;rotatable=0;points=[[0,0.5],[1,0.5]];portConstraint=eastwest;whiteSpace=wrap;html=1;" vertex="1" parent="OfxfBpNntlx1tqYd5shY-30">
          <mxGeometry y="52" width="140" height="26" as="geometry" />
        </mxCell>
        <mxCell id="OfxfBpNntlx1tqYd5shY-33" value="Testing" style="text;strokeColor=none;fillColor=none;align=left;verticalAlign=top;spacingLeft=4;spacingRight=4;overflow=hidden;rotatable=0;points=[[0,0.5],[1,0.5]];portConstraint=eastwest;whiteSpace=wrap;html=1;" vertex="1" parent="OfxfBpNntlx1tqYd5shY-30">
          <mxGeometry y="78" width="140" height="26" as="geometry" />
        </mxCell>
        <mxCell id="OfxfBpNntlx1tqYd5shY-35" value="Solution" style="sketch=0;html=1;aspect=fixed;strokeColor=none;shadow=0;fillColor=#3B8DF1;verticalAlign=top;labelPosition=center;verticalLabelPosition=bottom;shape=mxgraph.gcp2.capabilities" vertex="1" parent="1">
          <mxGeometry x="341" y="796" width="125.29" height="95.22" as="geometry" />
        </mxCell>
        <mxCell id="OfxfBpNntlx1tqYd5shY-36" style="edgeStyle=orthogonalEdgeStyle;rounded=0;orthogonalLoop=1;jettySize=auto;html=1;entryX=0.53;entryY=0.092;entryDx=0;entryDy=0;entryPerimeter=0;" edge="1" parent="1" source="OfxfBpNntlx1tqYd5shY-16" target="OfxfBpNntlx1tqYd5shY-35">
          <mxGeometry relative="1" as="geometry" />
        </mxCell>
        <mxCell id="OfxfBpNntlx1tqYd5shY-37" style="edgeStyle=orthogonalEdgeStyle;rounded=0;orthogonalLoop=1;jettySize=auto;html=1;entryX=0.53;entryY=0.127;entryDx=0;entryDy=0;entryPerimeter=0;" edge="1" parent="1" source="OfxfBpNntlx1tqYd5shY-30" target="OfxfBpNntlx1tqYd5shY-35">
          <mxGeometry relative="1" as="geometry" />
        </mxCell>
      </root>
    </mxGraphModel>
  </diagram>
</mxfile>
